<?xml version="1.0" encoding="UTF-8" standalone="no"?>
<!-- Created with Inkscape (http://www.inkscape.org/) -->

<svg
   width="400"
   height="400"
   viewBox="0 0 105.83333 105.83333"
   version="1.1"
   id="svg1"
   xml:space="preserve"
   inkscape:version="1.3.2 (091e20e, 2023-11-25)"
   sodipodi:docname="tank.svg"
   xmlns:inkscape="http://www.inkscape.org/namespaces/inkscape"
   xmlns:sodipodi="http://sodipodi.sourceforge.net/DTD/sodipodi-0.dtd"
   xmlns="http://www.w3.org/2000/svg"
   xmlns:svg="http://www.w3.org/2000/svg"><sodipodi:namedview
     id="namedview1"
     pagecolor="#ffffff"
     bordercolor="#000000"
     borderopacity="0.25"
     inkscape:showpageshadow="2"
     inkscape:pageopacity="0.0"
     inkscape:pagecheckerboard="0"
     inkscape:deskcolor="#d1d1d1"
     inkscape:document-units="px"
     inkscape:zoom="0.5946522"
     inkscape:cx="602.03258"
     inkscape:cy="511.2232"
     inkscape:window-width="1800"
     inkscape:window-height="1097"
     inkscape:window-x="0"
     inkscape:window-y="44"
     inkscape:window-maximized="1"
     inkscape:current-layer="g1" /><defs
     id="defs1" /><g
     inkscape:label="Layer 1"
     inkscape:groupmode="layer"
     id="layer1"><g
       style="fill:none"
       id="g1"
       transform="matrix(0.40974411,0,0,0.42002016,13.672357,9.6335892)"><path
         d="m -3.1658256,29.74014 v 149.8 c 0,0 25.7000016,23.2 95.3000016,23.2 69.599984,0 104.299984,-20.9 104.299984,-20.9 v -152.1 z"
         fill="#ffffff"
         id="path1" /><path
         d="m 92.134176,204.84014 c -69.6,0 -95.5999816,-22.8 -96.6999776,-23.7 -0.4,-0.4 -0.6999996,-0.9 -0.6999996,-1.5 v -149.9 c 0,-1.1 0.8999996,-2 1.9999956,-2 H 196.33416 c 1.1,0 2,0.9 2,2 v 152.1 c 0,0.7 -0.4,1.4 -1,1.7 -1.3,0.9 -35.8,21.3 -105.199984,21.3 z m -93.2999816,-26.2 c 4.4,3.4 31.3999816,22.2 93.2999816,22.2 61.799984,0 96.199984,-16.8 102.299984,-20.1 v -149 H -1.1658056 Z"
         fill="#404040"
         id="path2" /><path
         d="m -3.1658256,149.84014 v 29.8 c 0,0 30.2000016,23.2 99.7999976,23.2 69.599988,0 99.799988,-20.9 99.799988,-20.9 v -30.4 l -99.799988,18.2 z"
         fill="#fbce07"
         id="path3" /><path
         d="m 96.634172,204.84014 c -69.499996,0 -99.7999976,-22.7 -100.9999976,-23.6 -0.5,-0.4 -0.8,-1 -0.8,-1.6 v -29.8 c 0,-1.1 0.9,-2 2,-2 0.1,0 0.3,0 0.4,0 l 99.3999976,19.8 99.399988,-18.1 c 1.1,-0.2 2.1,0.5 2.3,1.6 0,0.1 0,0.2 0,0.4 v 30.4 c 0,0.7 -0.3,1.3 -0.9,1.6 -1.1,0.9 -31.4,21.3 -100.799988,21.3 z m -97.7999976,-26.3 c 5.1,3.5 35.8000016,22.3 97.7999976,22.3 61.699988,0 92.399988,-16.7 97.799988,-20 v -26.9 l -97.399988,17.8 c -0.2,0 -0.5,0 -0.7,0 l -97.4999976,-19.5 z"
         fill="#404040"
         id="path4" /><path
         d="m 96.634172,50.74014 c 55.117988,0 99.799988,-11.1929 99.799988,-25 0,-13.8071 -44.682,-25.00000012 -99.799988,-25.00000012 -55.117996,0 -99.7999976,11.19290012 -99.7999976,25.00000012 0,13.8071 44.6820016,25 99.7999976,25 z"
         fill="#ffffff"
         id="path5" /><path
         d="m 96.634172,52.64014 c -49.399996,0 -101.7999976,-9.4 -101.7999976,-26.9 0,-17.5000001 52.4000016,-27.0000001 101.7999976,-27.0000001 49.399988,0 101.799988,9.5 101.799988,27.0000001 0,17.5 -52.5,26.9 -101.799988,26.9 z m 0,-49.9000001 c -57.599996,0 -97.7999976,12.1000001 -97.7999976,23.0000001 0,10.9 40.2000016,23 97.7999976,23 57.599988,0 97.799988,-12.1 97.799988,-23 0,-10.9 -40.2,-23.0000001 -97.799988,-23.0000001 z"
         fill="#404040"
         id="path6" /><path
         d="m 196.43416,149.84014 c 0,13.8 -44.7,25 -99.799988,25 -55.099996,0 -99.7999976,-11.2 -99.7999976,-25 v -15.9 c 0,13.8 44.7000016,25 99.7999976,25 55.099988,0 99.799988,-11.2 99.799988,-25 z"
         fill="#dd1d21"
         id="path7" /><path
         d="m 96.634172,176.84014 c -49.299996,0 -101.7999976,-9.5 -101.7999976,-27 v -15.9 c 0,-1.1 0.9,-2 2,-2 1.1,0 2,0.9 2,2 0,10.9 40.2000016,23 97.7999976,23 57.599988,0 97.799988,-12.1 97.799988,-23 0,-1.1 0.9,-2 2,-2 1.1,0 2,0.9 2,2 v 15.9 c 0,17.5 -52.5,27 -101.799988,27 z m -97.7999976,-34.9 v 7.9 c 0,10.9 40.2000016,23 97.7999976,23 57.599988,0 97.799988,-12.1 97.799988,-23 v -7.9 c -13.1,12.4 -56.6,19 -97.799988,19 -41.199996,0 -84.699996,-6.6 -97.7999976,-19 z"
         fill="#404040"
         id="path8" /><path
         d="m 5.7341744,187.24014 c -1.09998,0 -1.99998,-0.9 -1.99998,-2 v -147.9 c 0,-1.1 0.9,-2 1.99998,-2 1.1000004,0 2.0000008,0.9 2.0000008,2 v 147.9 c 0,1.2 -0.9000004,2 -2.0000008,2 z"
         fill="#404040"
         id="path9" /><path
         d="m 31.134176,196.94014 c -1.1,0 -2,-0.9 -2,-2 v -149.4 c 0,-1.1 0.9,-2 2,-2 1.1,0 2,0.9 2,2 v 149.5 c 0,1 -0.9,1.9 -2,1.9 z"
         fill="#404040"
         id="path10" /><path
         d="m 31.134176,78.04014 c -0.2,0 -0.3,0 -0.5,-0.1 l -25.4000016,-6.6 c -1.1,-0.3 -1.7,-1.3 -1.4,-2.4 0.3,-1.1 1.4,-1.7 2.4000004,-1.4 l 25.4000012,6.6 c 1.1,0.3 1.7,1.3 1.4,2.4 -0.2,0.9 -1,1.5 -1.9,1.5 z"
         fill="#404040"
         id="path11" /><path
         d="m 31.134176,99.84014 c -0.2,0 -0.3,0 -0.5,-0.1 l -25.4000016,-6.6 c -1.10002,-0.3 -1.70002,-1.4 -1.50001,-2.4 0.3,-1.1 1.40001,-1.7 2.4000104,-1.4 l 25.4000012,6.6 c 1.1,0.3 1.7,1.3 1.4,2.4 -0.1,0.8 -0.9,1.5 -1.8,1.5 z"
         fill="#404040"
         id="path12" /><path
         d="m 31.134176,121.54014 c -0.2,0 -0.3,0 -0.5,-0.1 l -25.4000016,-6.6 c -1.1,-0.3 -1.7,-1.3 -1.4,-2.4 0.3,-1.1 1.4,-1.7 2.4000004,-1.4 l 25.4000012,6.6 c 1.1,0.3 1.7,1.3 1.4,2.4 -0.2,0.9 -1,1.5 -1.9,1.5 z"
         fill="#404040"
         id="path13" /><path
         d="m 31.134176,143.34014 c -0.2,0 -0.3,0 -0.5,-0.1 l -25.4000016,-6.6 c -1.1,-0.3 -1.7,-1.3 -1.4,-2.4 0.3,-1.1 1.4,-1.7 2.4000004,-1.4 l 25.4000012,6.6 c 1.1,0.3 1.7,1.3 1.4,2.4 -0.2,0.9 -1,1.5 -1.9,1.5 z"
         fill="#404040"
         id="path14" /></g></g></svg>
